<svg viewBox="0 0 25 24" fill="none" xmlns="http://www.w3.org/2000/svg">
<path d="M0.922373 23.7876L0.802064 19.7017L19.8889 0.796199C20.0692 0.616409 20.2684 0.484045 20.4865 0.399106C20.7046 0.314167 20.9238 0.267908 21.1442 0.260329C21.3867 0.253187 21.6153 0.28626 21.8299 0.359549C22.0445 0.432838 22.2518 0.556504 22.4518 0.730548L24.3016 2.3691C24.4992 2.53776 24.6417 2.72004 24.7291 2.91594C24.8166 3.11184 24.8637 3.3231 24.8703 3.54973C24.8762 3.74912 24.8414 3.95353 24.7658 4.16295C24.6903 4.37128 24.5584 4.56819 24.3701 4.75366L5.29548 23.6588L0.922373 23.7876ZM20.6729 6.01738L23.1226 3.59301L21.1923 1.89468L18.7461 4.31894L20.6729 6.01738Z" fill="#FBD46D"/>
</svg>
