<svg width="200" height="200" viewBox="0 0 130 130" fill="none" xmlns="http://www.w3.org/2000/svg">
<mask id="path-1-inside-1_55_96" fill="white">
<path d="M23.0822 104.614C29.2211 100.194 35.7356 96.7007 42.6256 94.1344C49.5107 91.5633 56.9689 90.2778 65 90.2778C73.0311 90.2778 80.4893 91.5633 87.3744 94.1344C94.2596 96.7056 100.774 100.196 106.918 104.607C111.684 99.6715 115.519 93.8456 118.423 87.1289C121.326 80.4026 122.778 73.0263 122.778 65C122.778 48.9907 117.152 35.3576 105.899 24.1006C94.6472 12.8435 81.0141 7.21741 65 7.22222C48.9859 7.22704 35.3528 12.8556 24.1006 24.1078C12.8483 35.36 7.22223 48.9907 7.22223 65C7.22223 73.0263 8.6739 80.4026 11.5772 87.1289C14.4806 93.8504 18.3156 99.6763 23.0822 104.607M65.0072 68.6111C58.9213 68.6111 53.7863 66.5215 49.6022 62.3422C45.4181 58.163 43.3285 53.0328 43.3333 46.9517C43.3382 40.8706 45.4278 35.7356 49.6022 31.5467C53.7767 27.3578 58.9093 25.2681 65 25.2778C71.0907 25.2874 76.2233 27.377 80.3978 31.5467C84.5722 35.7163 86.6618 40.8489 86.6666 46.9444C86.6715 53.04 84.5818 58.1726 80.3978 62.3422C76.2137 66.5118 71.0835 68.6015 65.0072 68.6111ZM65 130C55.9337 130 47.4476 128.312 39.5417 124.937C31.6357 121.562 24.7554 116.949 18.9006 111.099C13.0457 105.249 8.43316 98.3691 5.06279 90.4583C1.69242 82.5476 0.00482509 74.0615 1.02734e-05 65C-0.00480454 55.9385 1.68279 47.4524 5.06279 39.5417C8.44279 31.6309 13.0554 24.7506 18.9006 18.9006C24.7554 13.0506 31.6357 8.43796 39.5417 5.06278C47.4476 1.68759 55.9337 0 65 0C74.0663 0 82.5524 1.68759 90.4583 5.06278C98.3642 8.43796 105.245 13.0506 111.099 18.9006C116.954 24.7506 121.567 31.6309 124.937 39.5417C128.308 47.4524 129.995 55.9385 130 65C130.005 74.0615 128.317 82.5476 124.937 90.4583C121.557 98.3691 116.945 105.249 111.099 111.099C105.245 116.949 98.3642 121.562 90.4583 124.937C82.5524 128.312 74.0663 130 65 130ZM65 122.778C71.6589 122.778 78.2094 121.613 84.6516 119.282C91.0939 116.957 96.6622 113.769 101.357 109.72C96.667 105.95 91.2383 102.972 85.0705 100.786C78.9028 98.6002 72.2126 97.5048 65 97.5C57.7874 97.4952 51.0731 98.5665 44.8572 100.714C38.6413 102.861 33.2343 105.863 28.6361 109.72C33.3306 113.764 38.9013 116.952 45.3483 119.282C51.7954 121.613 58.3459 122.778 65 122.778ZM65 61.3889C69.0541 61.3889 72.475 59.995 75.2628 57.2072C78.0505 54.4194 79.4444 50.9985 79.4444 46.9444C79.4444 42.8904 78.0505 39.4694 75.2628 36.6817C72.475 33.8939 69.0541 32.5 65 32.5C60.9459 32.5 57.525 33.8939 54.7372 36.6817C51.9494 39.4694 50.5556 42.8904 50.5556 46.9444C50.5556 50.9985 51.9494 54.4194 54.7372 57.2072C57.525 59.995 60.9459 61.3889 65 61.3889Z"/>
</mask>
<path d="M23.0822 104.614C29.2211 100.194 35.7356 96.7007 42.6256 94.1344C49.5107 91.5633 56.9689 90.2778 65 90.2778C73.0311 90.2778 80.4893 91.5633 87.3744 94.1344C94.2596 96.7056 100.774 100.196 106.918 104.607C111.684 99.6715 115.519 93.8456 118.423 87.1289C121.326 80.4026 122.778 73.0263 122.778 65C122.778 48.9907 117.152 35.3576 105.899 24.1006C94.6472 12.8435 81.0141 7.21741 65 7.22222C48.9859 7.22704 35.3528 12.8556 24.1006 24.1078C12.8483 35.36 7.22223 48.9907 7.22223 65C7.22223 73.0263 8.6739 80.4026 11.5772 87.1289C14.4806 93.8504 18.3156 99.6763 23.0822 104.607M65.0072 68.6111C58.9213 68.6111 53.7863 66.5215 49.6022 62.3422C45.4181 58.163 43.3285 53.0328 43.3333 46.9517C43.3382 40.8706 45.4278 35.7356 49.6022 31.5467C53.7767 27.3578 58.9093 25.2681 65 25.2778C71.0907 25.2874 76.2233 27.377 80.3978 31.5467C84.5722 35.7163 86.6618 40.8489 86.6666 46.9444C86.6715 53.04 84.5818 58.1726 80.3978 62.3422C76.2137 66.5118 71.0835 68.6015 65.0072 68.6111ZM65 130C55.9337 130 47.4476 128.312 39.5417 124.937C31.6357 121.562 24.7554 116.949 18.9006 111.099C13.0457 105.249 8.43316 98.3691 5.06279 90.4583C1.69242 82.5476 0.00482509 74.0615 1.02734e-05 65C-0.00480454 55.9385 1.68279 47.4524 5.06279 39.5417C8.44279 31.6309 13.0554 24.7506 18.9006 18.9006C24.7554 13.0506 31.6357 8.43796 39.5417 5.06278C47.4476 1.68759 55.9337 0 65 0C74.0663 0 82.5524 1.68759 90.4583 5.06278C98.3642 8.43796 105.245 13.0506 111.099 18.9006C116.954 24.7506 121.567 31.6309 124.937 39.5417C128.308 47.4524 129.995 55.9385 130 65C130.005 74.0615 128.317 82.5476 124.937 90.4583C121.557 98.3691 116.945 105.249 111.099 111.099C105.245 116.949 98.3642 121.562 90.4583 124.937C82.5524 128.312 74.0663 130 65 130ZM65 122.778C71.6589 122.778 78.2094 121.613 84.6516 119.282C91.0939 116.957 96.6622 113.769 101.357 109.72C96.667 105.95 91.2383 102.972 85.0705 100.786C78.9028 98.6002 72.2126 97.5048 65 97.5C57.7874 97.4952 51.0731 98.5665 44.8572 100.714C38.6413 102.861 33.2343 105.863 28.6361 109.72C33.3306 113.764 38.9013 116.952 45.3483 119.282C51.7954 121.613 58.3459 122.778 65 122.778ZM65 61.3889C69.0541 61.3889 72.475 59.995 75.2628 57.2072C78.0505 54.4194 79.4444 50.9985 79.4444 46.9444C79.4444 42.8904 78.0505 39.4694 75.2628 36.6817C72.475 33.8939 69.0541 32.5 65 32.5C60.9459 32.5 57.525 33.8939 54.7372 36.6817C51.9494 39.4694 50.5556 42.8904 50.5556 46.9444C50.5556 50.9985 51.9494 54.4194 54.7372 57.2072C57.525 59.995 60.9459 61.3889 65 61.3889Z" fill="#FBD46D"/>
<path d="M42.6256 94.1344L43.3236 96.0087L43.3252 96.0081L42.6256 94.1344ZM106.918 104.607L105.751 106.231L107.156 107.239L108.356 105.996L106.918 104.607ZM118.423 87.1289L120.259 87.9224L120.259 87.9215L118.423 87.1289ZM11.5772 87.1289L9.74099 87.9215L9.74119 87.922L11.5772 87.1289ZM65.0072 68.6111V70.6111H65.0104L65.0072 68.6111ZM18.9006 18.9006L17.4869 17.4858L17.4858 17.4869L18.9006 18.9006ZM111.099 111.099L112.513 112.514L112.514 112.513L111.099 111.099ZM65 122.778V120.778V122.778ZM84.6516 119.282L83.9726 117.401L83.9713 117.401L84.6516 119.282ZM101.357 109.72L102.663 111.234L104.481 109.666L102.61 108.161L101.357 109.72ZM28.6361 109.72L27.3509 108.188L25.5483 109.7L27.3307 111.235L28.6361 109.72ZM24.2508 106.237C30.249 101.918 36.6058 98.5108 43.3236 96.0087L41.9275 92.2602C34.8653 94.8906 28.1932 98.4695 21.9136 102.991L24.2508 106.237ZM43.3252 96.0081C49.9667 93.5279 57.1856 92.2778 65 92.2778V88.2778C56.7522 88.2778 49.0547 89.5987 41.9259 92.2608L43.3252 96.0081ZM65 92.2778C72.8144 92.2778 80.0333 93.5279 86.6748 96.0081L88.0741 92.2608C80.9452 89.5987 73.2478 88.2778 65 88.2778V92.2778ZM86.6748 96.0081C93.3893 98.5154 99.7474 101.921 105.751 106.231L108.084 102.982C101.801 98.4713 95.1299 94.8957 88.0741 92.2608L86.6748 96.0081ZM108.356 105.996C113.301 100.877 117.266 94.8452 120.259 87.9224L116.587 86.3353C113.773 92.8459 110.068 98.4664 105.479 103.217L108.356 105.996ZM120.259 87.9215C123.28 80.9219 124.778 73.2727 124.778 65H120.778C120.778 72.7799 119.372 79.8833 116.587 86.3363L120.259 87.9215ZM124.778 65C124.778 48.4639 118.944 34.3212 107.314 22.6866L104.485 25.5145C115.36 36.394 120.778 49.5175 120.778 65H124.778ZM107.314 22.6866C95.6839 11.0516 81.5406 5.21725 64.9994 5.22222L65.0006 9.22222C80.4875 9.21757 93.6105 14.6354 104.485 25.5145L107.314 22.6866ZM64.9994 5.22222C48.4589 5.2272 34.3162 11.0637 22.6863 22.6936L25.5148 25.522C36.3894 14.6474 49.513 9.22688 65.0006 9.22222L64.9994 5.22222ZM22.6863 22.6936C11.0565 34.3234 5.22223 48.4639 5.22223 65H9.22223C9.22223 49.5176 14.6402 36.3966 25.5148 25.522L22.6863 22.6936ZM5.22223 65C5.22223 73.2727 6.71969 80.9219 9.74099 87.9215L13.4135 86.3363C10.6281 79.8833 9.22223 72.7799 9.22223 65H5.22223ZM9.74119 87.922C12.7336 94.8497 16.699 100.882 21.6443 105.997L24.5201 103.217C19.9321 98.471 16.2275 92.851 13.4133 86.3358L9.74119 87.922ZM65.0072 66.6111C59.4341 66.6111 54.8127 64.7199 51.0156 60.9272L48.1888 63.7572C52.7599 68.3231 58.4085 70.6111 65.0072 70.6111V66.6111ZM51.0156 60.9272C47.2193 57.1352 45.3289 52.5198 45.3333 46.9533L41.3333 46.9501C41.3281 53.5457 43.617 59.1907 48.1888 63.7572L51.0156 60.9272ZM45.3333 46.9533C45.3377 41.3841 47.2293 36.7612 51.0189 32.9584L48.1856 30.1349C43.6263 34.71 41.3386 40.357 41.3333 46.9501L45.3333 46.9533ZM51.0189 32.9584C54.8049 29.1593 59.421 27.269 64.9968 27.2778L65.0032 23.2778C58.3975 23.2673 52.7485 25.5562 48.1856 30.1349L51.0189 32.9584ZM64.9968 27.2778C70.5777 27.2866 75.1974 29.1791 78.9844 32.9617L81.8112 30.1316C77.2492 25.5749 71.6037 23.2882 65.0032 23.2778L64.9968 27.2778ZM78.9844 32.9617C82.77 36.7429 84.6622 41.3611 84.6666 46.946L88.6666 46.9429C88.6614 40.3367 86.3745 34.6897 81.8112 30.1316L78.9844 32.9617ZM84.6666 46.946C84.6711 52.5284 82.7799 57.1448 78.986 60.9256L81.8095 63.7589C86.3838 59.2004 88.6719 53.5516 88.6666 46.9429L84.6666 46.946ZM78.986 60.9256C75.1878 64.7106 70.5691 66.6023 65.0041 66.6111L65.0104 70.6111C71.5979 70.6007 77.2395 68.3131 81.8095 63.7589L78.986 60.9256ZM65 128C56.1886 128 47.9712 126.361 40.3269 123.098L38.7564 126.777C46.924 130.264 55.6788 132 65 132V128ZM40.3269 123.098C32.6464 119.819 25.9816 115.347 20.3142 109.685L17.4869 112.514C23.5292 118.552 30.6251 123.305 38.7564 126.777L40.3269 123.098ZM20.3142 109.685C14.6476 104.023 10.1767 97.3588 6.90275 89.6744L3.22282 91.2422C6.68961 99.3793 11.4439 106.476 17.4869 112.514L20.3142 109.685ZM6.90275 89.6744C3.64347 82.0244 2.00469 73.8061 2.00001 64.9989L-1.99999 65.0011C-1.99504 74.3169 -0.258632 83.0708 3.22282 91.2422L6.90275 89.6744ZM2.00001 64.9989C1.99533 56.1932 3.63383 47.9763 6.90194 40.3275L3.22363 38.7559C-0.26826 46.9285 -2.00494 55.6838 -1.99999 65.0011L2.00001 64.9989ZM6.90194 40.3275C10.1859 32.6415 14.6576 25.9766 20.3154 20.3142L17.4858 17.4869C11.4532 23.5245 6.69968 30.6203 3.22363 38.7559L6.90194 40.3275ZM20.3142 20.3154C25.9816 14.6526 32.6464 10.1811 40.3269 6.90217L38.7564 3.22339C30.6251 6.6948 23.5292 11.4485 17.4869 17.4858L20.3142 20.3154ZM40.3269 6.90217C47.9712 3.6387 56.1886 2 65 2V-2C55.6788 -2 46.924 -0.263513 38.7564 3.22339L40.3269 6.90217ZM65 2C73.8114 2 82.0288 3.6387 89.673 6.90217L91.2436 3.22339C83.076 -0.263513 74.3212 -2 65 -2V2ZM89.673 6.90217C97.3536 10.1811 104.018 14.6526 109.686 20.3154L112.513 17.4858C106.471 11.4485 99.3749 6.6948 91.2436 3.22339L89.673 6.90217ZM109.686 20.3154C115.352 25.9773 119.823 32.6412 123.097 40.3256L126.777 38.7578C123.31 30.6207 118.556 23.5239 112.513 17.4858L109.686 20.3154ZM123.097 40.3256C126.357 47.9756 127.995 56.1939 128 65.0011L132 64.9989C131.995 55.6831 130.259 46.9292 126.777 38.7578L123.097 40.3256ZM128 65.0011C128.005 73.8068 126.366 82.0237 123.098 89.6725L126.776 91.2441C130.268 83.0715 132.005 74.3162 132 64.9989L128 65.0011ZM123.098 89.6725C119.814 97.3585 115.342 104.023 109.685 109.686L112.514 112.513C118.547 106.476 123.3 99.3797 126.776 91.2441L123.098 89.6725ZM109.686 109.685C104.018 115.347 97.3536 119.819 89.673 123.098L91.2436 126.777C99.3749 123.305 106.471 118.552 112.513 112.514L109.686 109.685ZM89.673 123.098C82.0288 126.361 73.8114 128 65 128V132C74.3212 132 83.076 130.264 91.2436 126.777L89.673 123.098ZM65 124.778C71.8975 124.778 78.678 123.57 85.332 121.163L83.9713 117.401C77.7409 119.655 71.4202 120.778 65 120.778V124.778ZM85.3307 121.163C91.9786 118.764 97.7652 115.459 102.663 111.234L100.05 108.206C95.5592 112.079 90.2091 115.15 83.9726 117.401L85.3307 121.163ZM102.61 108.161C97.7302 104.239 92.0998 101.155 85.7386 98.901L84.4024 102.671C90.3768 104.789 95.6039 107.661 100.104 111.279L102.61 108.161ZM85.7386 98.901C79.336 96.6318 72.418 95.5049 65.0013 95.5L64.9987 99.5C72.0072 99.5047 78.4695 100.569 84.4024 102.671L85.7386 98.901ZM65.0013 95.5C57.5875 95.495 50.65 96.5967 44.2042 98.8235L45.5103 102.604C51.4963 100.536 57.9873 99.4953 64.9987 99.5L65.0013 95.5ZM44.2042 98.8235C37.7796 101.043 32.1533 104.16 27.3509 108.188L29.9214 111.252C34.3153 107.567 39.503 104.68 45.5103 102.604L44.2042 98.8235ZM27.3307 111.235C32.2283 115.455 38.0167 118.759 44.6685 121.163L46.0282 117.401C39.7859 115.145 34.4329 112.074 29.9415 108.205L27.3307 111.235ZM44.6685 121.163C51.3268 123.57 58.1071 124.778 65 124.778V120.778C58.5847 120.778 52.2639 119.655 46.0282 117.401L44.6685 121.163ZM65 63.3889C69.5677 63.3889 73.5024 61.796 76.677 58.6214L73.8485 55.793C71.4476 58.194 68.5404 59.3889 65 59.3889V63.3889ZM76.677 58.6214C79.8515 55.4469 81.4444 51.5122 81.4444 46.9444H77.4444C77.4444 50.4849 76.2495 53.392 73.8485 55.793L76.677 58.6214ZM81.4444 46.9444C81.4444 42.3767 79.8515 38.442 76.677 35.2675L73.8485 38.0959C76.2495 40.4969 77.4444 43.404 77.4444 46.9444H81.4444ZM76.677 35.2675C73.5024 32.0929 69.5677 30.5 65 30.5V34.5C68.5404 34.5 71.4476 35.6949 73.8485 38.0959L76.677 35.2675ZM65 30.5C60.4323 30.5 56.4976 32.0929 53.323 35.2675L56.1514 38.0959C58.5524 35.6949 61.4596 34.5 65 34.5V30.5ZM53.323 35.2675C50.1484 38.442 48.5556 42.3767 48.5556 46.9444H52.5556C52.5556 43.404 53.7504 40.4969 56.1514 38.0959L53.323 35.2675ZM48.5556 46.9444C48.5556 51.5122 50.1484 55.4469 53.323 58.6214L56.1514 55.793C53.7504 53.392 52.5556 50.4849 52.5556 46.9444H48.5556ZM53.323 58.6214C56.4976 61.796 60.4323 63.3889 65 63.3889V59.3889C61.4596 59.3889 58.5524 58.194 56.1514 55.793L53.323 58.6214Z" fill="white" mask="url(#path-1-inside-1_55_96)"/>
</svg>
