<svg width="50" height="50" viewBox="0 0 30 30" fill="none" xmlns="http://www.w3.org/2000/svg">
<g id="iconamoon:home">
<path id="Vector" d="M24.2921 11.9817C24.2978 11.9877 24.3035 11.9938 24.309 12H23.191C23.2002 11.9897 23.2098 11.9795 23.2196 11.9697C23.3603 11.829 23.5511 11.75 23.75 11.75C23.9432 11.75 24.1288 11.8246 24.2682 11.9579L24.2921 11.9817ZM26.4266 14.1163L25.5 15.0429V13.1896L26.4266 14.1163ZM24.5 13V14.3104L23.1896 13H24.5ZM22.1017 11.9121L15.7071 5.51751L16.2373 4.98731L16.5908 4.63376L16.2373 4.2802L15.7071 3.75001L15.8837 3.57336L23.1621 10.8517C22.9201 10.938 22.6977 11.0774 22.5125 11.2626C22.3274 11.4477 22.188 11.6701 22.1017 11.9121ZM15.0415 3.00142L15 3.0429L14.9585 3.00142C14.9723 3.00066 14.9861 3.00027 15 3.00027C15.0138 3.00027 15.0277 3.00066 15.0415 3.00142ZM14.1162 3.57336L14.2929 3.75001L13.7627 4.2802L13.4091 4.63376L13.7627 4.98731L14.2929 5.51751L7.89827 11.9121C7.81195 11.6701 7.67257 11.4477 7.48742 11.2626C7.30226 11.0774 7.07989 10.938 6.83788 10.8517L14.1162 3.57336ZM5.49998 23.25V15.7246L6.99998 14.2246V23.25H5.49998ZM14.8233 4.63376L15 4.45711L15.1766 4.63376L15 4.8104L14.8233 4.63376ZM5.70786 11.9817L5.7317 11.9579C5.8711 11.8246 6.05669 11.75 6.24998 11.75C6.44889 11.75 6.63966 11.829 6.78031 11.9697C6.79018 11.9795 6.79974 11.9897 6.809 12H5.69096C5.69648 11.9938 5.70212 11.9877 5.70786 11.9817ZM3.57334 14.1163L4.49998 13.1896V15.0429L3.57334 14.1163ZM2.98792 14.9451L3.80493 15.7621C3.78376 15.7641 3.76247 15.7652 3.74114 15.7653C3.64156 15.7662 3.54279 15.7472 3.45062 15.7095C3.35845 15.6718 3.27471 15.6161 3.20429 15.5457C3.13387 15.4753 3.07818 15.3915 3.04047 15.2994L2.58025 15.4877L3.04047 15.2994C3.00276 15.2072 2.98378 15.1084 2.98465 15.0089C2.98483 14.9875 2.98593 14.9662 2.98792 14.9451ZM6.81037 13L5.49998 14.3104V13H6.81037ZM5.53866 24.25H7.07293C7.15523 24.526 7.30518 24.7801 7.51254 24.9874C7.71991 25.1948 7.97395 25.3448 8.24998 25.4271V26.9613C7.57319 26.856 6.94225 26.5385 6.45188 26.0481C5.96151 25.5577 5.64403 24.9268 5.53866 24.25ZM9.24998 27V25.5H20.75V27H9.24998ZM21.75 26.9613V25.4271C22.026 25.3448 22.2801 25.1948 22.4874 24.9874C22.6948 24.7801 22.8447 24.526 22.927 24.25H24.4613C24.3559 24.9268 24.0384 25.5577 23.5481 26.0481C23.0577 26.5385 22.4268 26.856 21.75 26.9613ZM24.5 23.25H23V14.2246L24.5 15.7246V23.25ZM26.2411 15.7346C26.2349 15.7347 26.2287 15.7346 26.2225 15.7346L26.9845 14.9726C26.9846 14.9788 26.9846 14.985 26.9846 14.9912C26.9829 15.1878 26.904 15.3759 26.7649 15.515C26.6259 15.654 26.4378 15.7329 26.2411 15.7346Z" fill="#FBD46D" stroke="#FBD46D"/>
</g>
</svg>
