<svg width="80" height="80" viewBox="0 0 80 80" fill="none" xmlns="http://www.w3.org/2000/svg">
    <g>
        <rect width="80" height="80" rx="20" fill="white"/>
        <path d="M38.3333 40.8333C38.3333 40.1703 38.5967 39.5344 39.0656 39.0656C39.5344 38.5967 40.1703 38.3333 40.8333 38.3333C41.4964 38.3333 42.1322 38.0699 42.6011 37.6011C43.0699 37.1323 43.3333 36.4964 43.3333 35.8333C43.3333 35.1703 43.0699 34.5344 42.6011 34.0656C42.1322 33.5967 41.4964 33.3333 40.8333 33.3333C38.8442 33.3333 36.9365 34.1235 35.53 35.53C34.1235 36.9366 33.3333 38.8442 33.3333 40.8333C33.3333 41.4964 33.5967 42.1323 34.0656 42.6011C34.5344 43.0699 35.1703 43.3333 35.8333 43.3333C36.4964 43.3333 37.1322 43.0699 37.6011 42.6011C38.0699 42.1323 38.3333 41.4964 38.3333 40.8333ZM45 6.66667C34.61 6.66667 25.6267 12.75 20.7167 21.6467C19.9167 23.0967 18.6867 24.3567 17.1967 25.3633C10.8333 29.67 6.66666 37.2667 6.66666 45.8333C6.66666 58.9867 16.5567 70 29.1667 70C30.2489 70 31.31 69.92 32.35 69.76C35.2647 69.3124 38.2466 69.7538 40.9067 71.0267C44.6519 72.8693 48.8358 73.6338 52.9907 73.2347C57.1455 72.8356 61.1075 71.2887 64.4335 68.7668C67.7595 66.245 70.3184 62.8477 71.8242 58.9548C73.33 55.0619 73.7233 50.8269 72.96 46.7233C72.7224 45.5362 72.6954 44.3165 72.88 43.12C73.1822 41.3178 73.3333 39.4722 73.3333 37.5833C73.3333 20.7367 60.8667 6.66667 45 6.66667ZM57.5 41.6667C57.5 43.7459 57.0904 45.8048 56.2947 47.7258C55.4991 49.6468 54.3328 51.3923 52.8625 52.8625C51.3923 54.3328 49.6468 55.4991 47.7258 56.2948C45.8048 57.0905 43.7459 57.5 41.6667 57.5C39.5874 57.5 37.5285 57.0905 35.6075 56.2948C33.6865 55.4991 31.9411 54.3328 30.4708 52.8625C29.0005 51.3923 27.8343 49.6468 27.0386 47.7258C26.2429 45.8048 25.8333 43.7459 25.8333 41.6667C25.8333 37.4674 27.5015 33.4401 30.4708 30.4708C33.4401 27.5015 37.4674 25.8333 41.6667 25.8333C45.8659 25.8333 49.8932 27.5015 52.8625 30.4708C55.8318 33.4401 57.5 37.4674 57.5 41.6667Z" fill="#FBD46D" fill-opacity="0.85"/>
    </g>
</svg>
