<svg width="55" height="55" viewBox="0 0 35 35" fill="none" xmlns="http://www.w3.org/2000/svg">
<g id="material-symbols:arrow-back-rounded">
<path id="Vector" d="M11.4114 18.9583L18.5573 26.1042C18.8489 26.3958 18.9889 26.7361 18.9773 27.125C18.9656 27.5139 18.8134 27.8542 18.5208 28.1458C18.2291 28.4132 17.8889 28.5532 17.5 28.5658C17.1111 28.5785 16.7708 28.4385 16.4791 28.1458L6.85414 18.5208C6.70831 18.375 6.60477 18.217 6.54352 18.0469C6.48227 17.8767 6.45261 17.6944 6.45456 17.5C6.4565 17.3056 6.48713 17.1233 6.54643 16.9531C6.60574 16.783 6.70879 16.625 6.8556 16.4792L16.4806 6.85417C16.748 6.58681 17.0824 6.45312 17.4839 6.45312C17.8855 6.45312 18.2316 6.58681 18.5223 6.85417C18.8139 7.14583 18.9598 7.49243 18.9598 7.89396C18.9598 8.29549 18.8139 8.6416 18.5223 8.93229L11.4114 16.0417H27.7083C28.1215 16.0417 28.4681 16.1817 28.7481 16.4617C29.0281 16.7417 29.1676 17.0878 29.1666 17.5C29.1657 17.9122 29.0257 18.2588 28.7466 18.5398C28.4676 18.8208 28.1215 18.9603 27.7083 18.9583H11.4114Z" fill="#FBD46D"/>
</g>
</svg>
