<svg width="15" height="15" viewBox="0 0 15 15" fill="none" xmlns="http://www.w3.org/2000/svg">
<path d="M6 2.56098H9C9 2.17285 8.84196 1.80063 8.56066 1.52619C8.27936 1.25174 7.89782 1.09756 7.5 1.09756C7.10218 1.09756 6.72064 1.25174 6.43934 1.52619C6.15804 1.80063 6 2.17285 6 2.56098ZM4.875 2.56098C4.875 2.22466 4.9429 1.89164 5.07482 1.58093C5.20673 1.27022 5.40009 0.987901 5.64384 0.750092C5.8876 0.512284 6.17698 0.323644 6.49546 0.194943C6.81394 0.0662416 7.15528 0 7.5 0C7.84472 0 8.18606 0.0662416 8.50454 0.194943C8.82302 0.323644 9.1124 0.512284 9.35616 0.750092C9.59991 0.987901 9.79327 1.27022 9.92518 1.58093C10.0571 1.89164 10.125 2.22466 10.125 2.56098H14.4375C14.5867 2.56098 14.7298 2.61879 14.8352 2.72171C14.9407 2.82463 15 2.96421 15 3.10976C15 3.2553 14.9407 3.39489 14.8352 3.4978C14.7298 3.60072 14.5867 3.65854 14.4375 3.65854H13.4475L12.57 12.5202C12.5027 13.1993 12.1785 13.8295 11.6608 14.2879C11.143 14.7464 10.4687 15.0003 9.7695 15H5.2305C4.5314 15.0001 3.85733 14.7461 3.33971 14.2877C2.8221 13.8292 2.49805 13.1991 2.43075 12.5202L1.5525 3.65854H0.5625C0.413316 3.65854 0.270242 3.60072 0.164752 3.4978C0.0592632 3.39489 0 3.2553 0 3.10976C0 2.96421 0.0592632 2.82463 0.164752 2.72171C0.270242 2.61879 0.413316 2.56098 0.5625 2.56098H4.875ZM6.375 6.03658C6.375 5.89104 6.31574 5.75146 6.21025 5.64854C6.10476 5.54562 5.96168 5.4878 5.8125 5.4878C5.66332 5.4878 5.52024 5.54562 5.41475 5.64854C5.30926 5.75146 5.25 5.89104 5.25 6.03658V11.5244C5.25 11.6699 5.30926 11.8095 5.41475 11.9124C5.52024 12.0154 5.66332 12.0732 5.8125 12.0732C5.96168 12.0732 6.10476 12.0154 6.21025 11.9124C6.31574 11.8095 6.375 11.6699 6.375 11.5244V6.03658ZM9.1875 5.4878C9.03832 5.4878 8.89524 5.54562 8.78975 5.64854C8.68426 5.75146 8.625 5.89104 8.625 6.03658V11.5244C8.625 11.6699 8.68426 11.8095 8.78975 11.9124C8.89524 12.0154 9.03832 12.0732 9.1875 12.0732C9.33668 12.0732 9.47976 12.0154 9.58525 11.9124C9.69074 11.8095 9.75 11.6699 9.75 11.5244V6.03658C9.75 5.89104 9.69074 5.75146 9.58525 5.64854C9.47976 5.54562 9.33668 5.4878 9.1875 5.4878Z" fill="#4F8A8B"/>
</svg>
