<svg width="32" height="32" viewBox="0 0 32 32" fill="none" xmlns="http://www.w3.org/2000/svg">
<path d="M18.6666 13.2V10.9333C19.3999 10.6222 20.1501 10.3889 20.9173 10.2333C21.6844 10.0778 22.4897 10 23.3333 10C23.911 10 24.4777 10.0445 25.0333 10.1333C25.5888 10.2222 26.1333 10.3333 26.6666 10.4667V12.6C26.1333 12.4 25.5941 12.2502 25.0493 12.1507C24.5044 12.0511 23.9324 12.0009 23.3333 12C22.4888 12 21.6777 12.1058 20.8999 12.3173C20.1221 12.5289 19.3777 12.8231 18.6666 13.2ZM18.6666 20.5333V18.2667C19.3999 17.9556 20.1501 17.7222 20.9173 17.5667C21.6844 17.4111 22.4897 17.3333 23.3333 17.3333C23.911 17.3333 24.4777 17.3778 25.0333 17.4667C25.5888 17.5556 26.1333 17.6667 26.6666 17.8V19.9333C26.1333 19.7333 25.5941 19.5831 25.0493 19.4827C24.5044 19.3822 23.9324 19.3325 23.3333 19.3333C22.4888 19.3333 21.6777 19.4333 20.8999 19.6333C20.1221 19.8333 19.3777 20.1333 18.6666 20.5333ZM18.6666 16.8667V14.6C19.3999 14.2889 20.1501 14.0556 20.9173 13.9C21.6844 13.7445 22.4897 13.6667 23.3333 13.6667C23.911 13.6667 24.4777 13.7111 25.0333 13.8C25.5888 13.8889 26.1333 14 26.6666 14.1333V16.2667C26.1333 16.0667 25.5941 15.9165 25.0493 15.816C24.5044 15.7156 23.9324 15.6658 23.3333 15.6667C22.4888 15.6667 21.6777 15.7725 20.8999 15.984C20.1221 16.1956 19.3777 16.4898 18.6666 16.8667ZM17.3333 22.7333C18.311 22.2667 19.2946 21.9165 20.2839 21.6827C21.2733 21.4489 22.2897 21.3325 23.3333 21.3333C24.1333 21.3333 24.9168 21.4 25.6839 21.5333C26.451 21.6667 27.223 21.8667 27.9999 22.1333V8.93335C27.2666 8.62224 26.5053 8.3889 25.7159 8.23335C24.9266 8.07779 24.1324 8.00001 23.3333 8.00001C22.2888 8.00001 21.2555 8.13335 20.2333 8.40001C19.211 8.66668 18.2444 9.06668 17.3333 9.60001V22.7333ZM15.9999 26.6667C14.9333 25.8222 13.7777 25.1667 12.5333 24.7C11.2888 24.2333 9.99992 24 8.66659 24C7.73325 24 6.81681 24.1222 5.91725 24.3667C5.0177 24.6111 4.15636 24.9556 3.33325 25.4C2.86659 25.6445 2.41681 25.6333 1.98392 25.3667C1.55103 25.1 1.33414 24.7111 1.33325 24.2V8.13335C1.33325 7.8889 1.39459 7.65557 1.51725 7.43335C1.63992 7.21113 1.82303 7.04446 2.06659 6.93335C3.11103 6.42224 4.18347 6.02757 5.28392 5.74935C6.38436 5.47113 7.51192 5.33246 8.66659 5.33335C9.95547 5.33335 11.2168 5.50001 12.4506 5.83335C13.6844 6.16668 14.8675 6.66668 15.9999 7.33335C17.1333 6.66668 18.3168 6.16668 19.5506 5.83335C20.7844 5.50001 22.0453 5.33335 23.3333 5.33335C24.4888 5.33335 25.6168 5.47246 26.7173 5.75068C27.8177 6.0289 28.8897 6.42313 29.9333 6.93335C30.1777 7.04446 30.3613 7.21113 30.4839 7.43335C30.6066 7.65557 30.6675 7.8889 30.6666 8.13335V24.2C30.6666 24.7111 30.4501 25.1 30.0173 25.3667C29.5844 25.6333 29.1341 25.6445 28.6666 25.4C27.8444 24.9556 26.9835 24.6111 26.0839 24.3667C25.1844 24.1222 24.2675 24 23.3333 24C21.9999 24 20.711 24.2333 19.4666 24.7C18.2221 25.1667 17.0666 25.8222 15.9999 26.6667Z" fill="#FBD46D"/>
</svg>
